<svg xmlns="http://www.w3.org/2000/svg" width="760" height="360" viewBox="0 0 760 360" font-family="system-ui,-apple-system,&#x27;Segoe UI&#x27;,Roboto,sans-serif" role="img">
<title>Document-type recall by class</title>
<rect width="760" height="360" fill="#ffffff"/>
<text x="16" y="24" font-size="15" font-weight="600" fill="#0b0b0b">Document-type recall by class</text>
<text x="16" y="42" font-size="11.5" fill="#6f6e69">Share of each true class routed to it · Run 3 (Sep 21), Arm A (Sep 27), Arm B (Sep 27) · n = 323 documents</text>
<line x1="52" x2="744" y1="302" y2="302" stroke="#e1e0d9"/>
<text x="46" y="306" font-size="11" fill="#6f6e69" text-anchor="end">0.0</text>
<line x1="52" x2="744" y1="256.8" y2="256.8" stroke="#e1e0d9"/>
<text x="46" y="260.8" font-size="11" fill="#6f6e69" text-anchor="end">0.2</text>
<line x1="52" x2="744" y1="211.6" y2="211.6" stroke="#e1e0d9"/>
<text x="46" y="215.6" font-size="11" fill="#6f6e69" text-anchor="end">0.4</text>
<line x1="52" x2="744" y1="166.4" y2="166.4" stroke="#e1e0d9"/>
<text x="46" y="170.4" font-size="11" fill="#6f6e69" text-anchor="end">0.6</text>
<line x1="52" x2="744" y1="121.2" y2="121.2" stroke="#e1e0d9"/>
<text x="46" y="125.2" font-size="11" fill="#6f6e69" text-anchor="end">0.8</text>
<line x1="52" x2="744" y1="76" y2="76" stroke="#e1e0d9"/>
<text x="46" y="80" font-size="11" fill="#6f6e69" text-anchor="end">1.0</text>
<rect x="52" y="53" width="10" height="10" rx="2" fill="#b9b8b0"/>
<text x="70" y="62" font-size="11" fill="#3d3d3a" text-anchor="start">Run 3 (Sep 21)</text>
<rect x="180.4" y="53" width="10" height="10" rx="2" fill="#eb6834"/>
<text x="198.4" y="62" font-size="11" fill="#3d3d3a" text-anchor="start">Arm A (Sep 27)</text>
<rect x="308.8" y="53" width="10" height="10" rx="2" fill="#2a78d6"/>
<text x="326.8" y="62" font-size="11" fill="#3d3d3a" text-anchor="start">Arm B (Sep 27)</text>
<rect x="71.2" y="113.67" width="32" height="188.33" fill="#b9b8b0" rx="2"/>
<text x="87.2" y="109.67" font-size="10" fill="#3d3d3a" text-anchor="middle">0.83</text>
<rect x="105.2" y="147.57" width="32" height="154.43" fill="#eb6834" rx="2"/>
<text x="121.2" y="143.57" font-size="10" fill="#3d3d3a" text-anchor="middle">0.68</text>
<rect x="139.2" y="102.37" width="32" height="199.63" fill="#2a78d6" rx="2"/>
<text x="155.2" y="98.37" font-size="10" fill="#3d3d3a" text-anchor="middle">0.88</text>
<text x="121.2" y="318" font-size="11" fill="#3d3d3a" text-anchor="middle">Contract</text>
<rect x="209.6" y="172.17" width="32" height="129.83" fill="#b9b8b0" rx="2"/>
<text x="225.6" y="168.17" font-size="10" fill="#3d3d3a" text-anchor="middle">0.57</text>
<rect x="243.6" y="119.28" width="32" height="182.72" fill="#eb6834" rx="2"/>
<text x="259.6" y="115.28" font-size="10" fill="#3d3d3a" text-anchor="middle">0.81</text>
<rect x="277.6" y="100.04" width="32" height="201.96" fill="#2a78d6" rx="2"/>
<text x="293.6" y="96.04" font-size="10" fill="#3d3d3a" text-anchor="middle">0.89</text>
<text x="259.6" y="318" font-size="11" fill="#3d3d3a" text-anchor="middle">Corporate record</text>
<rect x="348" y="86.64" width="32" height="215.36" fill="#b9b8b0" rx="2"/>
<text x="364" y="82.64" font-size="10" fill="#3d3d3a" text-anchor="middle">0.95</text>
<rect x="382" y="102.59" width="32" height="199.41" fill="#eb6834" rx="2"/>
<text x="398" y="98.59" font-size="10" fill="#3d3d3a" text-anchor="middle">0.88</text>
<rect x="416" y="86.64" width="32" height="215.36" fill="#2a78d6" rx="2"/>
<text x="432" y="82.64" font-size="10" fill="#3d3d3a" text-anchor="middle">0.95</text>
<text x="398" y="318" font-size="11" fill="#3d3d3a" text-anchor="middle">Correspondence</text>
<rect x="486.4" y="76" width="32" height="226" fill="#b9b8b0" rx="2"/>
<text x="502.4" y="72" font-size="10" fill="#3d3d3a" text-anchor="middle">1.00</text>
<rect x="520.4" y="87.89" width="32" height="214.11" fill="#eb6834" rx="2"/>
<text x="536.4" y="83.89" font-size="10" fill="#3d3d3a" text-anchor="middle">0.95</text>
<rect x="554.4" y="76" width="32" height="226" fill="#2a78d6" rx="2"/>
<text x="570.4" y="72" font-size="10" fill="#3d3d3a" text-anchor="middle">1.00</text>
<text x="536.4" y="318" font-size="11" fill="#3d3d3a" text-anchor="middle">Insurance claim</text>
<rect x="624.8" y="76" width="32" height="226" fill="#b9b8b0" rx="2"/>
<text x="640.8" y="72" font-size="10" fill="#3d3d3a" text-anchor="middle">1.00</text>
<rect x="658.8" y="76" width="32" height="226" fill="#eb6834" rx="2"/>
<text x="674.8" y="72" font-size="10" fill="#3d3d3a" text-anchor="middle">1.00</text>
<rect x="692.8" y="76" width="32" height="226" fill="#2a78d6" rx="2"/>
<text x="708.8" y="72" font-size="10" fill="#3d3d3a" text-anchor="middle">1.00</text>
<text x="674.8" y="318" font-size="11" fill="#3d3d3a" text-anchor="middle">Merger agreement</text>
<line x1="52" x2="744" y1="302" y2="302" stroke="#c3c2b7"/>
</svg>
